<mxfile host="app.diagrams.net" agent="Mozilla/5.0 (Macintosh; Intel Mac OS X 10_15_7) AppleWebKit/605.1.15 (KHTML, like Gecko) Version/17.6 Safari/605.1.15" version="24.7.17">
  <diagram name="Page-1" id="vnkCX2BsebHflO09Axki">
    <mxGraphModel dx="1193" dy="804" grid="1" gridSize="10" guides="1" tooltips="1" connect="1" arrows="1" fold="1" page="1" pageScale="1" pageWidth="827" pageHeight="1169" math="0" shadow="0">
      <root>
        <mxCell id="0" />
        <mxCell id="1" parent="0" />
        <mxCell id="JhE7l50cmXq0fma_CSgy-3" value="ESP AP" style="swimlane;whiteSpace=wrap;html=1;rounded=1;" vertex="1" parent="1">
          <mxGeometry x="10" y="20" width="300" height="450" as="geometry" />
        </mxCell>
        <mxCell id="JhE7l50cmXq0fma_CSgy-13" value="mqtt broker" style="swimlane;whiteSpace=wrap;html=1;startSize=20;rounded=1;" vertex="1" parent="JhE7l50cmXq0fma_CSgy-3">
          <mxGeometry x="20" y="310" width="200" height="110" as="geometry" />
        </mxCell>
        <mxCell id="JhE7l50cmXq0fma_CSgy-15" value="RX Topic" style="rounded=1;whiteSpace=wrap;html=1;" vertex="1" parent="JhE7l50cmXq0fma_CSgy-13">
          <mxGeometry x="20" y="35" width="60" height="40" as="geometry" />
        </mxCell>
        <mxCell id="JhE7l50cmXq0fma_CSgy-16" value="TX Topic" style="rounded=1;whiteSpace=wrap;html=1;" vertex="1" parent="JhE7l50cmXq0fma_CSgy-13">
          <mxGeometry x="110" y="35" width="60" height="40" as="geometry" />
        </mxCell>
        <mxCell id="JhE7l50cmXq0fma_CSgy-23" value="mqtt client" style="swimlane;whiteSpace=wrap;html=1;rounded=1;" vertex="1" parent="JhE7l50cmXq0fma_CSgy-3">
          <mxGeometry x="110" y="180" width="100" height="110" as="geometry" />
        </mxCell>
        <mxCell id="JhE7l50cmXq0fma_CSgy-26" value="Subscribe" style="swimlane;fontStyle=0;childLayout=stackLayout;horizontal=1;startSize=30;horizontalStack=0;resizeParent=1;resizeParentMax=0;resizeLast=0;collapsible=1;marginBottom=0;whiteSpace=wrap;html=1;rounded=1;" vertex="1" parent="JhE7l50cmXq0fma_CSgy-23">
          <mxGeometry x="20" y="40" width="60" height="60" as="geometry" />
        </mxCell>
        <mxCell id="JhE7l50cmXq0fma_CSgy-27" value="Tx Topic" style="text;strokeColor=none;fillColor=none;align=left;verticalAlign=middle;spacingLeft=4;spacingRight=4;overflow=hidden;points=[[0,0.5],[1,0.5]];portConstraint=eastwest;rotatable=0;whiteSpace=wrap;html=1;" vertex="1" parent="JhE7l50cmXq0fma_CSgy-26">
          <mxGeometry y="30" width="60" height="30" as="geometry" />
        </mxCell>
        <mxCell id="JhE7l50cmXq0fma_CSgy-34" style="edgeStyle=orthogonalEdgeStyle;rounded=0;orthogonalLoop=1;jettySize=auto;html=1;" edge="1" parent="JhE7l50cmXq0fma_CSgy-3" source="JhE7l50cmXq0fma_CSgy-16" target="JhE7l50cmXq0fma_CSgy-27">
          <mxGeometry relative="1" as="geometry">
            <Array as="points">
              <mxPoint x="160" y="290" />
              <mxPoint x="160" y="290" />
            </Array>
          </mxGeometry>
        </mxCell>
        <mxCell id="JhE7l50cmXq0fma_CSgy-39" value="spice" style="swimlane;whiteSpace=wrap;html=1;rounded=1;" vertex="1" parent="JhE7l50cmXq0fma_CSgy-3">
          <mxGeometry x="20" y="40" width="260" height="120" as="geometry" />
        </mxCell>
        <mxCell id="JhE7l50cmXq0fma_CSgy-40" value="juice_send" style="rounded=1;whiteSpace=wrap;html=1;" vertex="1" parent="JhE7l50cmXq0fma_CSgy-39">
          <mxGeometry x="170" y="70" width="80" height="40" as="geometry" />
        </mxCell>
        <mxCell id="JhE7l50cmXq0fma_CSgy-44" value="cb_recv" style="rounded=1;whiteSpace=wrap;html=1;" vertex="1" parent="JhE7l50cmXq0fma_CSgy-39">
          <mxGeometry x="5" y="30" width="90" height="40" as="geometry" />
        </mxCell>
        <mxCell id="JhE7l50cmXq0fma_CSgy-42" style="edgeStyle=orthogonalEdgeStyle;rounded=0;orthogonalLoop=1;jettySize=auto;html=1;" edge="1" parent="JhE7l50cmXq0fma_CSgy-3" source="JhE7l50cmXq0fma_CSgy-27" target="JhE7l50cmXq0fma_CSgy-40">
          <mxGeometry relative="1" as="geometry">
            <Array as="points">
              <mxPoint x="230" y="255" />
            </Array>
          </mxGeometry>
        </mxCell>
        <mxCell id="JhE7l50cmXq0fma_CSgy-45" style="edgeStyle=orthogonalEdgeStyle;rounded=0;orthogonalLoop=1;jettySize=auto;html=1;" edge="1" parent="JhE7l50cmXq0fma_CSgy-3" source="JhE7l50cmXq0fma_CSgy-44" target="JhE7l50cmXq0fma_CSgy-15">
          <mxGeometry relative="1" as="geometry" />
        </mxCell>
        <mxCell id="JhE7l50cmXq0fma_CSgy-47" style="edgeStyle=orthogonalEdgeStyle;rounded=0;orthogonalLoop=1;jettySize=auto;html=1;" edge="1" parent="1" source="JhE7l50cmXq0fma_CSgy-5" target="JhE7l50cmXq0fma_CSgy-44">
          <mxGeometry relative="1" as="geometry">
            <Array as="points">
              <mxPoint x="260" y="110" />
              <mxPoint x="260" y="110" />
            </Array>
          </mxGeometry>
        </mxCell>
        <mxCell id="JhE7l50cmXq0fma_CSgy-72" style="edgeStyle=orthogonalEdgeStyle;rounded=0;orthogonalLoop=1;jettySize=auto;html=1;" edge="1" parent="1" source="JhE7l50cmXq0fma_CSgy-5" target="JhE7l50cmXq0fma_CSgy-59">
          <mxGeometry relative="1" as="geometry">
            <Array as="points">
              <mxPoint x="540" y="110" />
              <mxPoint x="540" y="110" />
            </Array>
          </mxGeometry>
        </mxCell>
        <mxCell id="JhE7l50cmXq0fma_CSgy-5" value="Internet" style="ellipse;shape=cloud;whiteSpace=wrap;html=1;" vertex="1" parent="1">
          <mxGeometry x="360" y="60" width="120" height="120" as="geometry" />
        </mxCell>
        <mxCell id="JhE7l50cmXq0fma_CSgy-21" value="mqtt client" style="swimlane;whiteSpace=wrap;html=1;rounded=1;" vertex="1" parent="1">
          <mxGeometry x="30" y="540" width="200" height="100" as="geometry" />
        </mxCell>
        <mxCell id="JhE7l50cmXq0fma_CSgy-31" value="Subscribe" style="swimlane;fontStyle=0;childLayout=stackLayout;horizontal=1;startSize=30;horizontalStack=0;resizeParent=1;resizeParentMax=0;resizeLast=0;collapsible=1;marginBottom=0;whiteSpace=wrap;html=1;rounded=1;" vertex="1" parent="JhE7l50cmXq0fma_CSgy-21">
          <mxGeometry x="20" y="30" width="60" height="60" as="geometry" />
        </mxCell>
        <mxCell id="JhE7l50cmXq0fma_CSgy-32" value="Rx Topic" style="text;strokeColor=none;fillColor=none;align=left;verticalAlign=middle;spacingLeft=4;spacingRight=4;overflow=hidden;points=[[0,0.5],[1,0.5]];portConstraint=eastwest;rotatable=0;whiteSpace=wrap;html=1;" vertex="1" parent="JhE7l50cmXq0fma_CSgy-31">
          <mxGeometry y="30" width="60" height="30" as="geometry" />
        </mxCell>
        <mxCell id="JhE7l50cmXq0fma_CSgy-35" value="Publish" style="swimlane;fontStyle=0;childLayout=stackLayout;horizontal=1;startSize=30;horizontalStack=0;resizeParent=1;resizeParentMax=0;resizeLast=0;collapsible=1;marginBottom=0;whiteSpace=wrap;html=1;rounded=1;" vertex="1" parent="JhE7l50cmXq0fma_CSgy-21">
          <mxGeometry x="110" y="30" width="60" height="60" as="geometry" />
        </mxCell>
        <mxCell id="JhE7l50cmXq0fma_CSgy-36" value="Tx Topic" style="text;strokeColor=none;fillColor=none;align=left;verticalAlign=middle;spacingLeft=4;spacingRight=4;overflow=hidden;points=[[0,0.5],[1,0.5]];portConstraint=eastwest;rotatable=0;whiteSpace=wrap;html=1;" vertex="1" parent="JhE7l50cmXq0fma_CSgy-35">
          <mxGeometry y="30" width="60" height="30" as="geometry" />
        </mxCell>
        <mxCell id="JhE7l50cmXq0fma_CSgy-33" style="edgeStyle=orthogonalEdgeStyle;rounded=0;orthogonalLoop=1;jettySize=auto;html=1;" edge="1" parent="1" source="JhE7l50cmXq0fma_CSgy-15" target="JhE7l50cmXq0fma_CSgy-31">
          <mxGeometry relative="1" as="geometry">
            <mxPoint x="80" y="500" as="targetPoint" />
            <Array as="points" />
          </mxGeometry>
        </mxCell>
        <mxCell id="JhE7l50cmXq0fma_CSgy-46" style="edgeStyle=orthogonalEdgeStyle;rounded=0;orthogonalLoop=1;jettySize=auto;html=1;" edge="1" parent="1" source="JhE7l50cmXq0fma_CSgy-40" target="JhE7l50cmXq0fma_CSgy-5">
          <mxGeometry relative="1" as="geometry">
            <Array as="points">
              <mxPoint x="410" y="150" />
              <mxPoint x="410" y="150" />
            </Array>
          </mxGeometry>
        </mxCell>
        <mxCell id="JhE7l50cmXq0fma_CSgy-48" style="edgeStyle=orthogonalEdgeStyle;rounded=0;orthogonalLoop=1;jettySize=auto;html=1;" edge="1" parent="1" source="JhE7l50cmXq0fma_CSgy-35" target="JhE7l50cmXq0fma_CSgy-16">
          <mxGeometry relative="1" as="geometry" />
        </mxCell>
        <mxCell id="JhE7l50cmXq0fma_CSgy-70" value="" style="group;flipH=1;" vertex="1" connectable="0" parent="1">
          <mxGeometry x="520" y="20" width="300" height="620" as="geometry" />
        </mxCell>
        <mxCell id="JhE7l50cmXq0fma_CSgy-49" value="ESP AP" style="swimlane;whiteSpace=wrap;html=1;rounded=1;container=0;" vertex="1" parent="JhE7l50cmXq0fma_CSgy-70">
          <mxGeometry width="300" height="450" as="geometry" />
        </mxCell>
        <mxCell id="JhE7l50cmXq0fma_CSgy-62" value="mqtt client" style="swimlane;whiteSpace=wrap;html=1;rounded=1;container=0;" vertex="1" parent="JhE7l50cmXq0fma_CSgy-70">
          <mxGeometry x="80" y="520" width="200" height="100" as="geometry" />
        </mxCell>
        <mxCell id="JhE7l50cmXq0fma_CSgy-67" style="edgeStyle=orthogonalEdgeStyle;rounded=0;orthogonalLoop=1;jettySize=auto;html=1;" edge="1" parent="JhE7l50cmXq0fma_CSgy-70" source="JhE7l50cmXq0fma_CSgy-51" target="JhE7l50cmXq0fma_CSgy-63">
          <mxGeometry relative="1" as="geometry">
            <mxPoint x="230" y="480" as="targetPoint" />
            <Array as="points" />
          </mxGeometry>
        </mxCell>
        <mxCell id="JhE7l50cmXq0fma_CSgy-68" style="edgeStyle=orthogonalEdgeStyle;rounded=0;orthogonalLoop=1;jettySize=auto;html=1;" edge="1" parent="JhE7l50cmXq0fma_CSgy-70" source="JhE7l50cmXq0fma_CSgy-65" target="JhE7l50cmXq0fma_CSgy-52">
          <mxGeometry relative="1" as="geometry" />
        </mxCell>
        <mxCell id="JhE7l50cmXq0fma_CSgy-50" value="mqtt broker" style="swimlane;whiteSpace=wrap;html=1;startSize=20;rounded=1;container=0;" vertex="1" parent="JhE7l50cmXq0fma_CSgy-70">
          <mxGeometry x="80" y="310" width="200" height="110" as="geometry" />
        </mxCell>
        <mxCell id="JhE7l50cmXq0fma_CSgy-53" value="mqtt client" style="swimlane;whiteSpace=wrap;html=1;rounded=1;container=0;" vertex="1" parent="JhE7l50cmXq0fma_CSgy-70">
          <mxGeometry x="90" y="180" width="100" height="110" as="geometry" />
        </mxCell>
        <mxCell id="JhE7l50cmXq0fma_CSgy-56" style="edgeStyle=orthogonalEdgeStyle;rounded=0;orthogonalLoop=1;jettySize=auto;html=1;" edge="1" parent="JhE7l50cmXq0fma_CSgy-70" source="JhE7l50cmXq0fma_CSgy-52" target="JhE7l50cmXq0fma_CSgy-55">
          <mxGeometry relative="1" as="geometry">
            <Array as="points">
              <mxPoint x="140" y="290" />
              <mxPoint x="140" y="290" />
            </Array>
          </mxGeometry>
        </mxCell>
        <mxCell id="JhE7l50cmXq0fma_CSgy-57" value="spice" style="swimlane;whiteSpace=wrap;html=1;rounded=1;container=0;" vertex="1" parent="JhE7l50cmXq0fma_CSgy-70">
          <mxGeometry x="20" y="40" width="260" height="120" as="geometry" />
        </mxCell>
        <mxCell id="JhE7l50cmXq0fma_CSgy-60" style="edgeStyle=orthogonalEdgeStyle;rounded=0;orthogonalLoop=1;jettySize=auto;html=1;" edge="1" parent="JhE7l50cmXq0fma_CSgy-70" source="JhE7l50cmXq0fma_CSgy-55" target="JhE7l50cmXq0fma_CSgy-58">
          <mxGeometry relative="1" as="geometry">
            <Array as="points">
              <mxPoint x="70" y="255" />
            </Array>
          </mxGeometry>
        </mxCell>
        <mxCell id="JhE7l50cmXq0fma_CSgy-61" style="edgeStyle=orthogonalEdgeStyle;rounded=0;orthogonalLoop=1;jettySize=auto;html=1;" edge="1" parent="JhE7l50cmXq0fma_CSgy-70" source="JhE7l50cmXq0fma_CSgy-59" target="JhE7l50cmXq0fma_CSgy-51">
          <mxGeometry relative="1" as="geometry" />
        </mxCell>
        <mxCell id="JhE7l50cmXq0fma_CSgy-51" value="RX Topic" style="rounded=1;whiteSpace=wrap;html=1;container=0;" vertex="1" parent="JhE7l50cmXq0fma_CSgy-70">
          <mxGeometry x="200" y="345" width="60" height="40" as="geometry" />
        </mxCell>
        <mxCell id="JhE7l50cmXq0fma_CSgy-52" value="TX Topic" style="rounded=1;whiteSpace=wrap;html=1;container=0;" vertex="1" parent="JhE7l50cmXq0fma_CSgy-70">
          <mxGeometry x="110" y="345" width="60" height="40" as="geometry" />
        </mxCell>
        <mxCell id="JhE7l50cmXq0fma_CSgy-54" value="Subscribe" style="swimlane;fontStyle=0;childLayout=stackLayout;horizontal=1;startSize=30;horizontalStack=0;resizeParent=1;resizeParentMax=0;resizeLast=0;collapsible=1;marginBottom=0;whiteSpace=wrap;html=1;rounded=1;container=0;" vertex="1" parent="JhE7l50cmXq0fma_CSgy-70">
          <mxGeometry x="110" y="220" width="60" height="60" as="geometry" />
        </mxCell>
        <mxCell id="JhE7l50cmXq0fma_CSgy-55" value="Tx Topic" style="text;strokeColor=none;fillColor=none;align=left;verticalAlign=middle;spacingLeft=4;spacingRight=4;overflow=hidden;points=[[0,0.5],[1,0.5]];portConstraint=eastwest;rotatable=0;whiteSpace=wrap;html=1;container=0;" vertex="1" parent="JhE7l50cmXq0fma_CSgy-70">
          <mxGeometry x="110" y="250" width="60" height="30" as="geometry" />
        </mxCell>
        <mxCell id="JhE7l50cmXq0fma_CSgy-58" value="juice_send" style="rounded=1;whiteSpace=wrap;html=1;container=0;" vertex="1" parent="JhE7l50cmXq0fma_CSgy-70">
          <mxGeometry x="30" y="110" width="80" height="40" as="geometry" />
        </mxCell>
        <mxCell id="JhE7l50cmXq0fma_CSgy-59" value="cb_recv" style="rounded=1;whiteSpace=wrap;html=1;container=0;" vertex="1" parent="JhE7l50cmXq0fma_CSgy-70">
          <mxGeometry x="185" y="70" width="90" height="40" as="geometry" />
        </mxCell>
        <mxCell id="JhE7l50cmXq0fma_CSgy-63" value="Subscribe" style="swimlane;fontStyle=0;childLayout=stackLayout;horizontal=1;startSize=30;horizontalStack=0;resizeParent=1;resizeParentMax=0;resizeLast=0;collapsible=1;marginBottom=0;whiteSpace=wrap;html=1;rounded=1;container=0;" vertex="1" parent="JhE7l50cmXq0fma_CSgy-70">
          <mxGeometry x="200" y="550" width="60" height="60" as="geometry" />
        </mxCell>
        <mxCell id="JhE7l50cmXq0fma_CSgy-65" value="Publish" style="swimlane;fontStyle=0;childLayout=stackLayout;horizontal=1;startSize=30;horizontalStack=0;resizeParent=1;resizeParentMax=0;resizeLast=0;collapsible=1;marginBottom=0;whiteSpace=wrap;html=1;rounded=1;container=0;" vertex="1" parent="JhE7l50cmXq0fma_CSgy-70">
          <mxGeometry x="110" y="550" width="60" height="60" as="geometry" />
        </mxCell>
        <mxCell id="JhE7l50cmXq0fma_CSgy-64" value="Rx Topic" style="text;strokeColor=none;fillColor=none;align=left;verticalAlign=middle;spacingLeft=4;spacingRight=4;overflow=hidden;points=[[0,0.5],[1,0.5]];portConstraint=eastwest;rotatable=0;whiteSpace=wrap;html=1;container=0;" vertex="1" parent="JhE7l50cmXq0fma_CSgy-70">
          <mxGeometry x="200" y="580" width="60" height="30" as="geometry" />
        </mxCell>
        <mxCell id="JhE7l50cmXq0fma_CSgy-66" value="Tx Topic" style="text;strokeColor=none;fillColor=none;align=left;verticalAlign=middle;spacingLeft=4;spacingRight=4;overflow=hidden;points=[[0,0.5],[1,0.5]];portConstraint=eastwest;rotatable=0;whiteSpace=wrap;html=1;container=0;" vertex="1" parent="JhE7l50cmXq0fma_CSgy-70">
          <mxGeometry x="110" y="580" width="60" height="30" as="geometry" />
        </mxCell>
        <mxCell id="JhE7l50cmXq0fma_CSgy-71" style="edgeStyle=orthogonalEdgeStyle;rounded=0;orthogonalLoop=1;jettySize=auto;html=1;" edge="1" parent="1" source="JhE7l50cmXq0fma_CSgy-58" target="JhE7l50cmXq0fma_CSgy-5">
          <mxGeometry relative="1" as="geometry">
            <Array as="points">
              <mxPoint x="490" y="150" />
              <mxPoint x="490" y="150" />
            </Array>
          </mxGeometry>
        </mxCell>
      </root>
    </mxGraphModel>
  </diagram>
</mxfile>
